<svg width="1019" height="426" viewBox="0 0 1019 426" fill="none" xmlns="http://www.w3.org/2000/svg">
<path fill-rule="evenodd" clip-rule="evenodd" d="M173.223 178.277C178.437 178.765 182.673 182.979 183.032 188.379C183.43 194.369 178.9 199.55 172.915 199.949C168.598 200.237 164.332 200.653 159.816 201.094C158.019 201.27 156.222 201.445 154.425 201.612C152.501 201.81 150.596 202.034 148.579 202.27C147.45 202.403 146.321 202.535 145.191 202.663L143.558 202.852C140.983 203.148 138.55 203.428 136.129 203.775L136.041 203.787L126.667 205.055C124.74 205.307 122.853 205.603 120.854 205.916C119.739 206.091 118.623 206.266 117.506 206.433C116.391 206.609 115.274 206.779 114.158 206.948C112.151 207.253 110.256 207.541 108.368 207.869L94.4581 210.274L80.5969 212.917C78.6823 213.276 76.8041 213.672 74.8157 214.091C73.6945 214.327 72.5737 214.564 71.4507 214.792L62.3283 216.699C60.1583 217.193 57.9872 217.681 55.8149 218.168C51.9399 219.037 47.9325 219.936 44.0319 220.858L32.8386 223.572C30.4384 224.151 28.1709 224.698 25.9101 225.3C20.1125 226.842 14.1655 223.387 12.6267 217.584C11.0871 211.781 14.5392 205.827 20.3368 204.286C22.8387 203.62 25.3344 203.017 27.7479 202.434L38.9824 199.712C43.0637 198.747 47.1334 197.834 51.0699 196.951C53.2482 196.462 55.4274 195.973 57.6052 195.477L57.7976 195.435L67.0701 193.497C68.1991 193.267 69.2719 193.04 70.345 192.814C72.3631 192.389 74.4498 191.949 76.5703 191.552L90.6695 188.864L104.666 186.445C106.771 186.079 108.871 185.76 110.904 185.451C111.99 185.286 113.076 185.121 114.161 184.949L114.263 184.933C115.342 184.773 116.42 184.604 117.498 184.434C119.542 184.114 121.655 183.783 123.81 183.501L133.095 182.245C135.802 181.858 138.486 181.549 141.083 181.25L142.724 181.061C143.858 180.933 144.956 180.804 146.055 180.675C148.075 180.438 150.165 180.193 152.26 179.977L152.371 179.966C154.152 179.801 155.931 179.628 157.711 179.453C162.192 179.016 166.825 178.563 171.475 178.254C172.066 178.214 172.651 178.223 173.223 178.277Z" fill="#59CBE8"/>
<path fill-rule="evenodd" clip-rule="evenodd" d="M274.09 186.28C279.817 187.307 285.494 188.421 291.114 189.619C302.315 192.096 310.783 194.175 318.622 196.371C326.821 198.587 335.67 201.285 345.674 204.62C349.739 205.974 351.936 210.371 350.581 214.44C349.226 218.51 344.835 220.714 340.768 219.355C331.036 216.111 322.455 213.494 314.538 211.355L314.469 211.335C306.907 209.217 298.688 207.2 287.818 204.796C270.268 201.054 252.029 198.148 233.668 196.173C216.22 194.281 198.292 193.211 178.852 192.902C161.163 192.629 142.672 193.051 123.9 194.157C119.619 194.409 115.952 191.142 115.702 186.861C115.452 182.58 118.716 178.905 122.993 178.653C142.148 177.525 161.025 177.094 179.101 177.373C199.025 177.69 217.419 178.789 235.338 180.732C248.366 182.134 261.344 183.992 274.09 186.28Z" fill="#9063CD"/>
<path fill-rule="evenodd" clip-rule="evenodd" d="M1002.53 203.309C1004.21 203.611 1005.85 204.316 1007.29 205.442C1012.02 209.138 1012.85 215.97 1009.16 220.702C997.378 235.794 983.846 250.695 968.939 264.99C954.358 278.941 938.879 291.806 922.924 303.234C906.388 315.084 889.15 325.519 871.69 334.248C853.497 343.341 834.739 350.768 815.936 356.324C810.181 358.025 804.143 354.734 802.447 348.976C800.751 343.218 804.04 337.171 809.793 335.471C827.376 330.276 844.938 323.32 861.991 314.796C878.429 306.579 894.677 296.741 910.286 285.555C925.41 274.722 940.092 262.518 953.924 249.283C968.074 235.715 980.902 221.593 992.044 207.319C994.612 204.03 998.694 202.621 1002.53 203.309Z" fill="#FDDA24"/>
<path fill-rule="evenodd" clip-rule="evenodd" d="M951.882 273.279C953.577 273.584 955.182 274.453 956.392 275.862C959.183 279.115 958.81 284.017 955.56 286.813C950.498 291.164 945.355 295.281 941.441 298.38L941.371 298.435C936.019 302.575 931.482 306.021 926.732 309.379C916.945 316.402 906.601 323.105 896.03 329.27C874.616 341.803 852.141 352.038 829.238 359.684C805.738 367.541 781.518 372.712 757.253 375.054C733.253 377.39 708.513 377.012 683.727 373.932C679.473 373.4 676.458 369.525 676.988 365.269C677.517 361.013 681.393 357.991 685.644 358.52C709.3 361.46 732.891 361.822 755.763 359.596C778.871 357.366 801.938 352.439 824.331 344.953C846.22 337.645 867.713 327.856 888.213 315.858C898.374 309.931 908.304 303.497 917.739 296.727C922.297 293.504 926.673 290.18 931.852 286.175C935.648 283.168 940.616 279.191 945.452 275.033C947.294 273.449 949.665 272.882 951.882 273.279Z" fill="#9063CD"/>
<path fill-rule="evenodd" clip-rule="evenodd" d="M269.965 192.862L270 192.868L272.491 193.321C276.598 194.067 280.844 194.838 285.079 195.746C289.124 196.539 293.121 197.456 296.987 198.343C298.011 198.578 299.035 198.813 300.06 199.046L300.225 199.084C311.702 201.879 321.168 204.45 330.016 207.175C340.539 210.421 350.101 213.662 359.253 217.084C368.745 220.649 378.354 224.549 387.828 228.683C405.041 236.24 423.104 245.118 443.073 255.836C455.7 262.602 468.417 269.71 480.715 276.583C486.004 279.539 491.298 282.498 496.607 285.444C501.853 288.354 503.747 294.97 500.838 300.222C497.929 305.474 491.319 307.373 486.073 304.462C480.743 301.506 475.429 298.535 470.12 295.568C457.905 288.741 445.274 281.681 432.809 275.002C413.343 264.553 395.783 255.92 379.12 248.606C370.013 244.631 360.757 240.874 351.631 237.447C342.894 234.18 333.726 231.073 323.617 227.955C315.219 225.369 306.175 222.914 295.166 220.232C294.153 220.001 293.14 219.769 292.127 219.537C288.227 218.642 284.543 217.797 280.809 217.067L280.608 217.026C276.683 216.181 272.761 215.469 268.608 214.716L266.089 214.257C260.189 213.178 256.282 207.516 257.362 201.609C258.44 195.715 264.078 191.806 269.965 192.862Z" fill="#FDDA24"/>
<path fill-rule="evenodd" clip-rule="evenodd" d="M752.795 348.264C756.837 348.989 760.052 352.35 760.419 356.641C760.856 361.768 757.058 366.282 751.936 366.721C701.765 371.029 647.599 362.613 590.946 341.706C586.123 339.926 583.656 334.569 585.436 329.74C587.216 324.912 592.569 322.443 597.392 324.22C651.462 344.173 702.925 352.225 750.351 348.153C751.187 348.081 752.007 348.122 752.795 348.264Z" fill="#F5B6CD"/>
<path fill-rule="evenodd" clip-rule="evenodd" d="M416.271 230.948C417.245 231.123 418.212 231.434 419.146 231.893C440.532 242.407 461.425 253.972 482.731 265.885L485.084 267.201C504.56 278.089 524.698 289.348 544.781 299.378C550.147 302.058 552.326 308.586 549.646 313.959C546.967 319.332 540.443 321.514 535.078 318.835C514.542 308.579 494.179 297.194 474.487 286.184L472.133 284.868C451.092 273.102 430.474 261.69 409.564 251.41C404.181 248.764 401.962 242.249 404.608 236.86C406.795 232.405 411.622 230.113 416.271 230.948Z" fill="#00C389"/>
<path fill-rule="evenodd" clip-rule="evenodd" d="M307.755 144.929C308.178 144.948 308.602 144.98 309.03 145.028C332.738 147.673 357.202 152.182 381.743 158.432C403.701 164.009 426.688 171.219 452.006 180.473C461.665 184.003 466.635 194.702 463.107 204.371C459.58 214.039 448.89 219.016 439.233 215.486C415.111 206.67 393.307 199.824 372.571 194.559C349.675 188.728 326.912 184.528 304.903 182.073C294.684 180.934 287.324 171.716 288.463 161.487C289.555 151.685 298.056 144.509 307.755 144.929Z" fill="#F5B6CD"/>
<path fill-rule="evenodd" clip-rule="evenodd" d="M266.154 107.498C277.534 107.522 289.25 107.893 300.987 108.602L301.095 108.609C312.584 109.359 324.412 110.501 336.25 112.004L336.422 112.027L345.256 113.224L353.586 114.513C355.67 114.824 357.634 115.171 359.533 115.506C360.459 115.669 361.383 115.833 362.31 115.989L362.502 116.023C362.957 116.104 363.413 116.182 363.869 116.26C364.897 116.437 365.924 116.615 366.948 116.81L371.156 117.62C382.936 119.888 390.649 131.287 388.383 143.079C386.117 154.871 374.734 162.594 362.951 160.325L358.784 159.522C358.054 159.383 357.28 159.251 356.507 159.118C356.006 159.032 355.505 158.946 355.005 158.857C353.997 158.687 352.989 158.509 351.982 158.331C350.274 158.029 348.661 157.744 347.138 157.518L338.826 156.232L330.703 155.135C319.783 153.751 308.889 152.698 298.319 152.007C287.318 151.344 276.368 151.003 265.718 150.984C263.964 150.989 262.211 151.013 260.458 151.038C259.466 151.051 258.475 151.065 257.483 151.076L253.492 151.133L249.497 151.271C248.482 151.309 247.468 151.342 246.453 151.376C244.683 151.434 243.009 151.489 241.381 151.57L232.77 152.055C231.04 152.136 229.193 152.283 227.237 152.439C226.495 152.497 225.753 152.557 225.01 152.613C223.987 152.698 222.963 152.776 221.939 152.854C220.219 152.983 218.596 153.106 217.083 153.264C215.775 153.397 214.521 153.521 213.267 153.646C208.926 154.076 204.827 154.482 200.795 155.012L200.451 155.054C189.606 156.303 178.509 158.085 168.127 159.827C147.399 163.495 125.893 168.347 104.201 174.249C92.6274 177.399 80.6904 170.558 77.5439 158.971C74.3974 147.382 81.2311 135.435 92.8073 132.285C115.794 126.03 138.627 120.882 160.672 116.985L160.859 116.953C171.787 115.119 183.523 113.234 195.321 111.871C199.974 111.264 204.554 110.809 208.985 110.37C210.203 110.249 211.421 110.129 212.638 110.005C214.711 109.789 216.723 109.637 218.67 109.49C219.604 109.419 220.539 109.349 221.473 109.27L221.659 109.255C222.371 109.202 223.083 109.145 223.795 109.089C225.98 108.914 228.238 108.735 230.637 108.62L239.142 108.141C241.165 108.039 243.128 107.975 245.027 107.912C245.982 107.881 246.939 107.849 247.895 107.813L247.971 107.81L252.65 107.654L256.977 107.591C257.937 107.581 258.898 107.568 259.859 107.555C261.786 107.528 263.715 107.502 265.644 107.497L265.734 107.497L266.154 107.498Z" fill="#00C389"/>
<path fill-rule="evenodd" clip-rule="evenodd" d="M557.148 223.29C559.305 223.677 561.438 224.4 563.478 225.48C595.872 242.643 622.79 254.135 648.189 261.647L648.442 261.723C649.368 262.01 650.42 262.302 651.534 262.612C652.271 262.817 653.008 263.022 653.743 263.232C655.517 263.735 657.17 264.204 658.687 264.573L658.91 264.628L664.435 266.033L672.577 267.875L675.182 268.388C675.914 268.529 676.644 268.675 677.375 268.821C678.428 269.031 679.48 269.242 680.535 269.433C681.465 269.585 682.394 269.741 683.324 269.897C686.111 270.364 688.744 270.807 691.227 271.109L691.809 271.188C694.396 271.574 697.153 271.86 700.073 272.164C700.883 272.248 701.692 272.332 702.502 272.418C703.586 272.512 704.672 272.591 705.758 272.67C706.474 272.723 707.19 272.775 707.906 272.831C708.298 272.858 708.689 272.888 709.081 272.919C709.47 272.95 709.858 272.985 710.247 273.002L717.323 273.318L724.107 273.42C724.801 273.41 725.496 273.402 726.19 273.394C729.199 273.359 732.041 273.326 734.716 273.174C746.691 272.492 756.951 281.661 757.626 293.65C758.301 305.639 749.139 315.91 737.161 316.59C733.508 316.797 730.037 316.837 726.68 316.877C725.918 316.886 725.156 316.894 724.393 316.905L723.755 316.905L715.712 316.776L708.298 316.445C707.293 316.4 706.385 316.328 705.656 316.271C705.379 316.249 705.103 316.227 704.827 316.208L704.616 316.193C703.936 316.14 703.255 316.09 702.574 316.04C701.21 315.94 699.846 315.839 698.482 315.719L698.07 315.679C697.237 315.59 696.405 315.503 695.572 315.417C692.397 315.087 689.117 314.746 685.679 314.241C682.332 313.825 679.179 313.296 676.127 312.784C675.204 312.63 674.28 312.474 673.356 312.324L673.009 312.265C671.627 312.016 670.249 311.743 668.871 311.468C668.212 311.336 667.552 311.205 666.892 311.078L663.326 310.367L653.999 308.249L648.309 306.803C646.025 306.246 643.917 305.648 641.878 305.069L641.779 305.041C641.155 304.861 640.529 304.688 639.903 304.514C638.644 304.164 637.221 303.769 635.747 303.315C607.54 294.962 578.111 282.44 543.145 263.916C532.544 258.3 528.502 245.143 534.116 234.529C538.65 225.958 548.097 221.666 557.148 223.29Z" fill="#59CBE8"/>
<path fill-rule="evenodd" clip-rule="evenodd" d="M489.185 215.86C490.856 216.16 492.506 216.742 494.069 217.625C497.274 219.434 500.481 221.251 503.691 223.069C521.492 233.151 539.899 243.576 558.433 253.149C582.835 265.759 604.671 275.346 625.19 282.459C633.286 285.265 637.574 294.111 634.768 302.216C631.961 310.321 623.124 314.618 615.026 311.81C593.092 304.207 569.923 294.047 544.193 280.752C525.131 270.905 506.46 260.331 488.403 250.105C485.204 248.292 482.008 246.482 478.813 244.678C471.352 240.464 468.718 230.992 472.93 223.521C476.261 217.615 482.874 214.728 489.185 215.86Z" fill="#FDDA24"/>
<path fill-rule="evenodd" clip-rule="evenodd" d="M899.246 237.96C904.705 238.94 909.791 241.999 913.217 246.911C920.083 256.754 917.675 270.309 907.837 277.186C891.96 288.286 875.434 298.015 858.722 306.102C841.22 314.575 823.096 321.445 804.854 326.519C795.146 329.21 785.614 331.38 776.502 332.97C767.063 334.63 757.377 335.86 747.735 336.621L744.292 336.874C742.948 336.976 741.618 337.072 740.151 337.124L732.887 337.434L726.25 337.533C724.719 337.568 723.293 337.55 722.09 337.527L714.758 337.399L711.232 337.241C710.592 337.208 709.952 337.182 709.311 337.155C707.684 337.087 705.844 337.011 703.875 336.84L696.652 336.288L689.96 335.585C678.032 334.326 669.376 323.635 670.632 311.692C671.889 299.75 682.578 291.084 694.509 292.337L700.882 293.007L707.56 293.511C708.582 293.601 709.824 293.653 711.138 293.708C711.894 293.739 712.651 293.771 713.407 293.81L716.412 293.943L722.896 294.048C723.665 294.063 724.552 294.077 725.302 294.058L725.521 294.053L731.944 293.958L738.59 293.667C739.261 293.645 740.091 293.584 741.029 293.511L744.402 293.264C752.653 292.611 760.938 291.558 769.027 290.136C776.777 288.783 784.921 286.927 793.255 284.617C808.978 280.243 824.652 274.298 839.822 266.954C854.465 259.868 868.982 251.317 882.972 241.537C887.902 238.091 893.762 236.977 899.246 237.96Z" fill="#FDDA24"/>
<path fill-rule="evenodd" clip-rule="evenodd" d="M955.32 163.501C957.828 163.951 960.258 165.026 962.372 166.751C969.011 172.172 970.002 181.955 964.585 188.603C957.316 197.522 949.056 206.563 940.035 215.475C931.308 224.08 922.196 232.24 912.942 239.739C893.597 255.435 873.112 268.796 852.066 279.446C844.417 283.315 835.085 280.248 831.221 272.594C827.358 264.939 830.426 255.596 838.074 251.726C857.154 242.072 875.774 229.919 893.416 215.605C901.897 208.733 910.25 201.251 918.252 193.361C926.472 185.24 933.975 177.031 940.542 168.974C944.235 164.443 949.952 162.538 955.32 163.501Z" fill="#9063CD"/>
<path fill-rule="evenodd" clip-rule="evenodd" d="M246.324 111.182C254.558 110.735 261.765 116.855 262.591 125.153C263.44 133.689 257.217 141.296 248.69 142.146C215.309 145.47 180.206 152.36 144.357 162.626C127.8 167.367 110.608 172.967 93.2591 179.268C77.3888 185.042 60.9795 191.605 43.1011 199.328C35.2353 202.726 26.104 199.098 22.7083 191.221C19.3126 183.346 22.9366 174.206 30.804 170.808C49.2459 162.841 66.2098 156.058 82.665 150.072C100.693 143.524 118.575 137.7 135.819 132.761C173.45 121.986 210.391 114.744 245.615 111.236C245.852 111.213 246.088 111.194 246.324 111.182Z" fill="#FDDA24"/>
</svg>
